<?xml version="1.0" encoding="utf-8"?>
<svg version="1.1" xmlns="http://www.w3.org/2000/svg" viewBox="0 0 512 512">
<path fill="#000" d="M256 0C114.6 0 0 114.6 0 256s114.6 256 256 256 256-114.6 256-256S397.4 0 256 0zm25.1 319.5v-27.8h-50.2v27.8c0 2.2-1.8 4-4 4h-34.6v96h127.4v-96h-34.6c-2.2 0-4-1.8-4-4zm44.1 4.1h-40.7v-5.9h-56.9v5.9h-40.7c-32.2 0-58.2 26.1-58.2 58.2v96.3c37.5 21.6 81 34 127.4 34s89.9-12.3 127.4-33.9v-96.3c-.1-32.2-26.1-58.3-58.3-58.3zM172.6 233.4c0 11.1-9 20.1-20.1 20.1s-20-9-20-20.1 9-20 20-20 20.1 9 20.1 20zm163 233.5c0-1.4 1.3-2.7 2.8-2.7h.1c1.5 0 2.7 1.3 2.7 2.7 0 1.5-1.3 2.8-2.7 2.8-1.5.1-2.9-1.2-2.9-2.8zm-130.3-162.6c0 11.1-9 20.1-20.1 20.1s-20-9-20-20.1 9-20 20-20 20.1 9 20.1 20zm85.3 85.3c0 9.3-7.6 16.8-16.8 16.8-9.3 0-16.8-7.6-16.8-16.8 0-2.4 1.9-4.3 4.3-4.3s4.3 1.9 4.3 4.3c0 4.6 3.8 8.4 8.4 8.4 4.6 0 8.4-3.8 8.4-8.4 0-2.4 1.9-4.3 4.3-4.3 2.3 0 4.3 1.9 4.3 4.3 0-2.4 1.9-4.3 4.3-4.3s4.3 1.9 4.3 4.3c0 9.3-7.6 16.8-16.8 16.8-14 0-25.5-11.4-25.5-25.5 0-2.4 1.9-4.3 4.3-4.3s4.3 1.9 4.3 4.3c0 9.3 7.6 16.8 16.8 16.8zm45.5-165.2c0 11.1-9 20.1-20.1 20.1s-20-9-20-20.1 9-20 20-20 20.1 9 20.1 20zm-167.2-54.2v6.4V233h12.1v-33.9c-0.003 0-0.005 0-0.007 0 23.4-2.4 46.5-6.2 68.4-12.7V87.1c-44.6.9-80.5 37.3-80.5 82.1zm154.3-47.1c-14.9-21.2-39.4-35-67.3-35h-4.9c-0.6 0-1.2 0.03-1.7 0.04v99.7c12.4-3.7 24.4-8.3 35.8-14 11.4 13 24.5 24.7 38.9 34.1v26.5h14.1v-43.3-21c0-17.6-5.5-33.8-14.9-47.1z"/>
</svg>
